<mxfile host="app.diagrams.net" modified="2024-05-10T23:05:39.476Z" agent="Mozilla/5.0 (Windows NT 10.0; Win64; x64) AppleWebKit/537.36 (KHTML, like Gecko) Chrome/123.0.0.0 Safari/537.36 OPR/109.0.0.0" version="24.4.0" etag="vKl02NfKf9hNHWBjbFC3" type="github">
  <diagram name="PÃ¡gina-1" id="5Uv1Fl6X4bc-CMmAkqRq">
    <mxGraphModel>
      <root>
        <mxCell id="0" />
        <mxCell id="1" parent="0" />
      </root>
    </mxGraphModel>
  </diagram>
</mxfile>
